<svg width="147" height="50" xmlns="http://www.w3.org/2000/svg" xmlns:xlink="http://www.w3.org/1999/xlink" xml:space="preserve" overflow="hidden"><defs><clipPath id="clip0"><rect x="243" y="109" width="147" height="50"/></clipPath><clipPath id="clip1"><rect x="359" y="118" width="32" height="31"/></clipPath><clipPath id="clip2"><rect x="359" y="118" width="32" height="31"/></clipPath><clipPath id="clip3"><rect x="359" y="118" width="32" height="31"/></clipPath></defs><g clip-path="url(#clip0)" transform="translate(-243 -109)"><text font-family="Calibri,Calibri_MSFontService,sans-serif" font-weight="700" font-size="14" transform="matrix(1 0 0 1 276.396 138)">Git Download</text><g clip-path="url(#clip1)"><g clip-path="url(#clip2)"><g clip-path="url(#clip3)"><path d="M16.7658 10.573 11.9324 10.573 11.9324 17.8231 8.15631 17.8231 14.3491 25.0731 20.5418 17.8231 16.7658 17.8231Z" transform="matrix(1.03448 0 0 1 360 119)"/><path d="M24.3481 11.449C24.1064 9.96883 23.2908 8.63965 22.0825 7.7636 20.8439 6.88755 19.2731 6.55526 17.7626 6.85735 16.2824 4.5917 13.5334 3.47399 10.9053 4.10837 8.33757 4.77295 6.40422 6.91776 6.01151 9.54591 4.31983 9.60633 2.71877 10.422 1.69168 11.7813 0.483337 13.473 0.271877 15.6782 1.11772 17.5814 1.99377 19.4543 3.80628 20.6929 5.86046 20.8137L8.06569 20.8137 7.25006 19.8168 6.49484 18.9408 5.95109 18.9408C4.5917 18.8501 3.38336 18.0345 2.77919 16.796 2.20523 15.5272 2.35627 14.0772 3.1719 12.9293 3.98753 11.8116 5.34692 11.2678 6.73651 11.4793L7.79381 11.6605 7.79381 10.4824C7.79381 8.33757 9.24382 6.46463 11.3282 5.95109 13.4126 5.43754 15.5574 6.46463 16.5241 8.36777L16.8866 9.09278 17.6418 8.8209C18.7897 8.42819 20.0283 8.60944 21.0252 9.30424 21.9918 10.0292 22.5658 11.147 22.596 12.3553L22.596 13.2918 23.8346 13.2918C25.3752 13.3522 26.5835 14.6209 26.5533 16.1314 26.5533 17.672 25.3148 18.9106 23.8044 18.9408L22.2335 18.9408 21.4481 19.8168 20.6022 20.8439 23.8044 20.8439C26.2512 20.7835 28.245 18.8501 28.3961 16.4033 28.5471 13.9564 26.7648 11.8116 24.3481 11.449Z" transform="matrix(1.03448 0 0 1 360 119)"/></g></g></g></g></svg>